<svg xmlns="http://www.w3.org/2000/svg" xmlns:xlink="http://www.w3.org/1999/xlink"><symbol id="icon-checkbox-checked"><path fill="transparent" d="M.5.5h15v15H.5z"/><path d="M4.5 7l3 3L12 5.5" fill="transparent"/></symbol><symbol id="icon-checkbox-unchecked"><path fill="transparent" d="M.5.5h15v15H.5z"/></symbol><symbol id="icon-close"><path fill-rule="evenodd" clip-rule="evenodd" d="M.147.854A.5.5 0 11.854.146l7.424 7.425L15.703.146a.5.5 0 11.707.708L8.985 8.278l7.425 7.425a.5.5 0 01-.707.707L8.278 8.985.854 16.41a.5.5 0 11-.708-.707l7.425-7.425L.147.854z" fill="#fff"/></symbol><symbol id="icon-detective"><path d="M18 9.758a.706.706 0 00-.703.708c0 .391.315.708.703.708a.706.706 0 00.703-.708.706.706 0 00-.703-.708z"/><path d="M33.89 14.007h-2.735C29.712 9.859 27.62 2.587 23.829.53c-1.896-1.028-3.688-.31-4.362 1.148A1.59 1.59 0 0118 2.625a1.59 1.59 0 01-1.467-.946C15.883.27 14.133-.514 12.304.38 8.453 2.264 6.3 9.828 4.845 14.007H2.11c-1.166 0-2.11.95-2.11 2.123a2.12 2.12 0 002.11 2.124h31.78c1.166 0 2.11-.95 2.11-2.124a2.12 2.12 0 00-2.11-2.124zM7.316 11.174h7.872a.706.706 0 00.704-.708.706.706 0 00-.704-.708h-7.38c2.12-5.896 4.1-7.609 5.111-8.104 1.104-.54 2.013-.088 2.34.622A2.996 2.996 0 0018 4.041a2.996 2.996 0 002.742-1.765c.337-.73 1.25-1.134 2.42-.5 1.016.552 2.99 2.322 5.03 7.982h-7.38a.706.706 0 00-.703.708c0 .391.315.708.703.708h7.873c.355 1.033.725 2.098.98 2.833H6.335c.255-.733.623-1.796.98-2.833zm26.576 5.665H2.109a.706.706 0 01-.703-.708c0-.391.315-.708.703-.708h31.782c.387 0 .703.317.703.708 0 .39-.315.708-.703.708zm-17.298 4.248H5.344a.705.705 0 00-.703.708v2.832C4.64 28.142 7.479 31 10.969 31a6.316 6.316 0 005.915-4.105 2.681 2.681 0 012.232 0A6.315 6.315 0 0025.031 31c3.49 0 6.328-2.859 6.328-6.373v-2.832a.706.706 0 00-.703-.708h-11.25a.706.706 0 00-.703.708v.708h-1.406v-.708a.705.705 0 00-.703-.708zm-5.625 8.497c-2.714 0-4.922-2.224-4.922-4.956v-2.125h9.844v2.125c0 2.74-2.197 4.956-4.922 4.956zm9.14-7.08h9.844v2.123c0 2.733-2.208 4.957-4.922 4.957-2.732 0-4.922-2.223-4.922-4.956v-2.125zm-1.406 1.415v.709c0 .226.013.451.036.675a4.08 4.08 0 00-1.478 0 6.62 6.62 0 00.036-.675v-.709h1.406z"/><path d="M10.969 26.752a2.12 2.12 0 01-2.11-2.125.705.705 0 00-.703-.708.705.705 0 00-.703.708c0 1.952 1.577 3.54 3.516 3.54a.706.706 0 00.703-.707.706.706 0 00-.703-.708zm14.062 1.416c1.939 0 3.516-1.589 3.516-3.54a.706.706 0 00-.703-.709.706.706 0 00-.703.708 2.12 2.12 0 01-2.11 2.125.706.706 0 00-.703.708c0 .39.315.708.703.708z"/></symbol><symbol id="icon-fb"><path fill-rule="evenodd" clip-rule="evenodd" d="M27 13.5C27 6.045 20.956 0 13.5 0S0 6.045 0 13.5C0 20.956 6.044 27 13.5 27S27 20.956 27 13.5zM16.884 9.294h-1.74c-.469 0-.798.397-.798.891v.775h2.485l-.402 2.517h-2.083v6.747h-2.543v-6.747h-1.688V10.96h1.688V9.677h.004c.045-1.463.553-2.856 3.031-2.944v-.01h2.046v2.571z"/></symbol><symbol id="icon-hired"><path d="M31.264 27.893a3.132 3.132 0 00.597-1.842v-4.108a.684.684 0 00-.684-.683h-3.055a2.564 2.564 0 00-2.561 2.561v2.23c0 .687.222 1.323.596 1.841a4.402 4.402 0 00-1.336.445 5.817 5.817 0 00-4.294-2.56l-.021-.005a4.02 4.02 0 001.03-2.69V17.5a.684.684 0 00-.684-.684H16.7a3.24 3.24 0 00-3.236 3.236v3.03a4.02 4.02 0 001.03 2.69l-.021.005a5.816 5.816 0 00-4.294 2.56c-.42-.22-.87-.369-1.337-.445a3.132 3.132 0 00.597-1.84v-4.109a.684.684 0 00-.684-.683H5.7a2.564 2.564 0 00-2.56 2.561v2.23c0 .688.221 1.324.596 1.842A4.464 4.464 0 000 32.291v2.025c0 .378.306.684.684.684h33.632a.684.684 0 00.684-.684v-2.025a4.464 4.464 0 00-3.736-4.398zM4.506 23.821c0-.658.536-1.194 1.194-1.194h2.372v.832a.74.74 0 01-.74.74H4.506v-.378zm0 1.746h2.826c.26 0 .51-.048.74-.135v.62c0 .982-.8 1.782-1.783 1.782-.983 0-1.783-.8-1.783-1.783v-.484zm2.224 3.634l-.44.44-.442-.44h.882zm2.468 2.363v2.069h-7.83V32.29a3.095 3.095 0 012.588-3.049l1.85 1.85a.684.684 0 00.966 0l1.85-1.85c.327.053.642.158.934.312a5.784 5.784 0 00-.358 2.01zm8.302-5.813a2.672 2.672 0 01-2.668-2.668v-.904h4.085c.453 0 .88-.115 1.252-.319v1.223a2.672 2.672 0 01-2.669 2.669zm1.192 1.368L17.5 28.31l-1.192-1.191h2.384zm-3.86-7.067a1.87 1.87 0 011.868-1.868h3.469v1.377c0 .69-.562 1.251-1.252 1.251H14.83v-.76zm9.603 13.58h-13.87v-1.366h4.451a.684.684 0 100-1.368h-4.4a4.455 4.455 0 013.8-3.738l2.6 2.6a.682.682 0 00.967 0l2.601-2.6a4.451 4.451 0 013.85 4.404v2.069zm2.493-9.81c0-.66.536-1.195 1.194-1.195h2.372v.832a.74.74 0 01-.74.74h-2.826v-.378zm0 1.745h2.825c.26 0 .51-.048.74-.135v.62c0 .982-.799 1.782-1.782 1.782s-1.783-.8-1.783-1.783v-.484zm2.224 3.634l-.441.44-.44-.44h.88zm-3.35 4.432v-2.069c0-.706-.127-1.383-.358-2.01.292-.154.606-.26.933-.312l1.85 1.85a.684.684 0 00.967 0l1.85-1.85a3.095 3.095 0 012.589 3.05v1.34h-7.831zM20.869 4.466a.684.684 0 00-.967 0l-3.354 3.355-1.45-1.45a.684.684 0 10-.967.967l1.933 1.933a.684.684 0 00.967 0l3.838-3.838a.684.684 0 000-.966z"/><path d="M20.295.593a.684.684 0 00-.557 1.248 5.51 5.51 0 013.264 5.028A5.508 5.508 0 0117.5 12.37a5.508 5.508 0 01-5.502-5.501 5.515 5.515 0 013.24-5.017.683.683 0 10-.563-1.246 6.885 6.885 0 00-4.044 6.263 6.877 6.877 0 006.869 6.868 6.876 6.876 0 006.869-6.868A6.88 6.88 0 0020.295.593z"/><path d="M17.524 0H17.5a.684.684 0 000 1.367h.021A.684.684 0 0017.524 0zm.459 31.099a.688.688 0 00-.483-.2.689.689 0 00-.483.2.689.689 0 00-.2.483.684.684 0 00.683.683.688.688 0 00.684-.683.689.689 0 00-.2-.483z"/></symbol><symbol id="icon-logo" viewBox="0 0 52 52">
<path d="M32.0668 13.8665C33.1952 13.8665 34.1485 14.5936 34.5073 15.5998H43.4929C43.8517 14.5936 44.805 13.8665 45.9334 13.8665C47.3669 13.8665 48.5334 15.033 48.5334 16.4664C48.5334 17.8999 47.3669 19.0664 45.9334 19.0664C44.805 19.0664 43.8517 18.3392 43.4929 17.3331H34.5064C34.1476 18.3392 33.1943 19.0664 32.0659 19.0664C30.6324 19.0664 29.4659 17.8999 29.4659 16.4664C29.4659 15.033 30.6333 13.8665 32.0668 13.8665ZM45.9334 17.3331C46.411 17.3331 46.8001 16.9448 46.8001 16.4664C46.8001 15.988 46.411 15.5998 45.9334 15.5998C45.4559 15.5998 45.0668 15.988 45.0668 16.4664C45.0668 16.9448 45.4559 17.3331 45.9334 17.3331ZM32.0668 17.3331C32.5443 17.3331 32.9334 16.9448 32.9334 16.4664C32.9334 15.988 32.5443 15.5998 32.0668 15.5998C31.5892 15.5998 31.2001 15.988 31.2001 16.4664C31.2001 16.9448 31.5892 17.3331 32.0668 17.3331Z" fill="#00B2FF"/>
<path d="M25.1333 19.2259V13.8665C25.1333 13.636 25.2243 13.4158 25.3872 13.2538L28.8539 9.78716C29.0159 9.62423 29.2369 9.53323 29.4666 9.53323H32.2261C32.5849 8.52705 33.5382 7.79993 34.6666 7.79993C36.1001 7.79993 37.2666 8.96644 37.2666 10.3999C37.2666 11.8333 36.1001 12.9998 34.6666 12.9998C33.5382 12.9998 32.5849 12.2727 32.2261 11.2665H29.8254L26.8666 14.2253V19.2259C27.8728 19.5847 28.5999 20.538 28.5999 21.6664C28.5999 23.0998 27.4334 24.2663 25.9999 24.2663C24.5665 24.2663 23.3999 23.0998 23.3999 21.6664C23.3999 20.538 24.1271 19.5847 25.1333 19.2259ZM34.6666 11.2665C35.1441 11.2665 35.5333 10.8783 35.5333 10.3999C35.5333 9.92149 35.1441 9.53323 34.6666 9.53323C34.1891 9.53323 33.7999 9.92149 33.7999 10.3999C33.7999 10.8783 34.1891 11.2665 34.6666 11.2665ZM25.9999 22.533C26.4775 22.533 26.8666 22.1448 26.8666 21.6664C26.8666 21.188 26.4775 20.7997 25.9999 20.7997C25.5224 20.7997 25.1333 21.188 25.1333 21.6664C25.1333 22.1448 25.5224 22.533 25.9999 22.533Z" fill="#00B2FF"/>
<path d="M9.53333 22.533C9.93373 22.533 10.3081 22.6309 10.647 22.7938L12.1333 21.3075V12.9998C12.1333 12.7693 12.2243 12.5491 12.3873 12.3871L21.0609 3.7136C20.8979 3.37474 20.8 3.00035 20.8 2.59996C20.8 1.16651 21.9665 0 23.4 0C24.8335 0 26 1.16651 26 2.59996C26 4.0334 24.8335 5.19991 23.4 5.19991C22.9996 5.19991 22.6252 5.10198 22.2863 4.93905L13.8667 13.3586V21.6663C13.8667 21.8968 13.7757 22.117 13.6127 22.279L11.8725 24.0193C12.0354 24.3581 12.1333 24.7325 12.1333 25.1329C12.1333 26.5664 10.9668 27.7329 9.53333 27.7329C8.09986 27.7329 6.93333 26.5664 6.93333 25.1329C6.93333 23.6995 8.09986 22.533 9.53333 22.533ZM23.4 3.46661C23.8775 3.46661 24.2667 3.07835 24.2667 2.59996C24.2667 2.12156 23.8775 1.7333 23.4 1.7333C22.9225 1.7333 22.5333 2.12156 22.5333 2.59996C22.5333 3.07835 22.9225 3.46661 23.4 3.46661ZM9.53333 25.9996C10.0109 25.9996 10.4 25.6113 10.4 25.1329C10.4 24.6545 10.0109 24.2663 9.53333 24.2663C9.0558 24.2663 8.66667 24.6545 8.66667 25.1329C8.66667 25.6113 9.0558 25.9996 9.53333 25.9996Z" fill="#00B2FF"/>
<path d="M1.73328 12.2926V8.66652C1.73328 8.43599 1.82428 8.21586 1.98722 8.0538L8.05388 1.98723C8.21595 1.8243 8.43695 1.7333 8.66662 1.7333H13.1594C13.5182 0.727121 14.4716 0 15.6 0C17.0334 0 18.2 1.16651 18.2 2.59996C18.2 4.0334 17.0334 5.19991 15.6 5.19991C14.4716 5.19991 13.5182 4.47279 13.1594 3.46661H9.02542L3.46662 9.02532V12.2926C4.47282 12.6514 5.19995 13.6047 5.19995 14.7331C5.19995 16.1665 4.03342 17.333 2.59995 17.333C1.16648 17.333 -4.95911e-05 16.1665 -4.95911e-05 14.7331C-4.95911e-05 13.6047 0.727085 12.6514 1.73328 12.2926ZM15.6 3.46661C16.0775 3.46661 16.4666 3.07835 16.4666 2.59996C16.4666 2.12156 16.0775 1.7333 15.6 1.7333C15.1224 1.7333 14.7333 2.12156 14.7333 2.59996C14.7333 3.07835 15.1224 3.46661 15.6 3.46661ZM2.59995 15.5997C3.07748 15.5997 3.46662 15.2115 3.46662 14.7331C3.46662 14.2547 3.07748 13.8664 2.59995 13.8664C2.12242 13.8664 1.73328 14.2547 1.73328 14.7331C1.73328 15.2115 2.12242 15.5997 2.59995 15.5997Z" fill="#00B2FF"/>
<path d="M13.8658 46.9595V34.5066C12.8604 34.1478 12.1333 33.1945 12.1333 32.0661C12.1333 30.6327 13.2998 29.4661 14.7333 29.4661C15.8617 29.4661 16.815 30.1933 17.1738 31.1995H26.1594C26.5182 30.1933 27.4716 29.4661 28.6 29.4661C29.7284 29.4661 30.6817 30.1933 31.0405 31.1995H36.0412L39.2608 27.9798C39.0979 27.641 39 27.2666 39 26.8662C39 25.4327 40.1665 24.2662 41.6 24.2662C43.0334 24.2662 44.2 25.4327 44.2 26.8662C44.2 28.2996 43.0334 29.4661 41.6 29.4661C41.1996 29.4661 40.8252 29.3682 40.4863 29.2053L37.0127 32.6788C36.8506 32.8418 36.6296 32.9328 36.4 32.9328H31.0405C30.6817 33.9389 29.7284 34.6661 28.6 34.6661C27.4716 34.6661 26.5182 33.9389 26.1594 32.9328H17.173C16.9112 33.6668 16.3332 34.2449 15.5991 34.5066V46.9595C16.6053 47.3183 17.3324 48.2716 17.3324 49.4C17.3324 50.8335 16.1659 52 14.7324 52C13.299 52 12.1324 50.8335 12.1324 49.4C12.1324 48.2716 12.8596 47.3183 13.8658 46.9595ZM41.6 27.7328C42.0775 27.7328 42.4666 27.3446 42.4666 26.8662C42.4666 26.3878 42.0775 25.9995 41.6 25.9995C41.1224 25.9995 40.7333 26.3878 40.7333 26.8662C40.7333 27.3446 41.1224 27.7328 41.6 27.7328ZM28.6 32.9328C29.0775 32.9328 29.4666 32.5445 29.4666 32.0661C29.4666 31.5877 29.0775 31.1995 28.6 31.1995C28.1224 31.1995 27.7333 31.5877 27.7333 32.0661C27.7333 32.5445 28.1224 32.9328 28.6 32.9328ZM14.7333 50.2658C15.2108 50.2658 15.6 49.8775 15.6 49.3991C15.6 48.9208 15.2108 48.5325 14.7333 48.5325C14.2558 48.5325 13.8666 48.9208 13.8666 49.3991C13.8666 49.8775 14.2558 50.2658 14.7333 50.2658ZM14.7333 32.9328C15.2108 32.9328 15.6 32.5445 15.6 32.0661C15.6 31.5877 15.2108 31.1995 14.7333 31.1995C14.2558 31.1995 13.8666 31.5877 13.8666 32.0661C13.8666 32.5445 14.2558 32.9328 14.7333 32.9328Z" fill="#00B2FF"/>
<path d="M18.2 17.4925V14.7331C18.2 14.5026 18.291 14.2824 18.4539 14.1204L28.8609 3.7136C28.6979 3.37474 28.6 3.00035 28.6 2.59996C28.6 1.16651 29.7665 0 31.2 0C32.3284 0 33.2817 0.727121 33.6405 1.7333H37.2667C37.7451 1.7333 38.1333 2.1207 38.1333 2.59996V4.84112L41.353 8.06073C41.6919 7.8978 42.0663 7.79987 42.4667 7.79987C43.9001 7.79987 45.0667 8.96638 45.0667 10.3998C45.0667 11.8333 43.9001 12.9998 42.4667 12.9998C41.0332 12.9998 39.8667 11.8333 39.8667 10.3998C39.8667 9.99943 39.9646 9.62504 40.1275 9.28618L36.6539 5.81264C36.491 5.65057 36.4 5.43044 36.4 5.19991V3.46661H33.6405C33.2817 4.47279 32.3284 5.19991 31.2 5.19991C30.7996 5.19991 30.4252 5.10198 30.0863 4.93905L19.9333 15.0919V17.4925C20.9395 17.8513 21.6667 18.8046 21.6667 19.933C21.6667 21.3664 20.5001 22.533 19.0667 22.533C17.6332 22.533 16.4667 21.3664 16.4667 19.933C16.4667 18.8046 17.1938 17.8513 18.2 17.4925ZM42.4667 11.2665C42.9442 11.2665 43.3333 10.8782 43.3333 10.3998C43.3333 9.92143 42.9442 9.53317 42.4667 9.53317C41.9891 9.53317 41.6 9.92143 41.6 10.3998C41.6 10.8782 41.9891 11.2665 42.4667 11.2665ZM31.2 3.46661C31.6775 3.46661 32.0667 3.07835 32.0667 2.59996C32.0667 2.12156 31.6775 1.7333 31.2 1.7333C30.7225 1.7333 30.3333 2.12156 30.3333 2.59996C30.3333 3.07835 30.7225 3.46661 31.2 3.46661ZM19.0667 20.7997C19.5442 20.7997 19.9333 20.4114 19.9333 19.933C19.9333 19.4546 19.5442 19.0663 19.0667 19.0663C18.5891 19.0663 18.2 19.4546 18.2 19.933C18.2 20.4114 18.5891 20.7997 19.0667 20.7997Z" fill="#00B2FF"/>
<path d="M20.8 24.2663C21.9284 24.2663 22.8817 24.9934 23.2405 25.9996H33.4412L38.3873 21.0536C38.5493 20.8906 38.7703 20.7997 39 20.7997H48.1745L50.2667 18.7076V11.6253L43.5803 4.93905C43.2415 5.10198 42.8671 5.19991 42.4667 5.19991C41.0332 5.19991 39.8667 4.0334 39.8667 2.59996C39.8667 1.16651 41.0332 0 42.4667 0C43.9001 0 45.0667 1.16651 45.0667 2.59996C45.0667 3.00035 44.9687 3.37474 44.8058 3.7136L51.7461 10.6538C51.909 10.8158 52 11.0359 52 11.2665V19.0663C52 19.2969 51.909 19.517 51.7461 19.6791L49.1461 22.279C48.984 22.442 48.763 22.533 48.5333 22.533H39.3588L34.4127 27.4789C34.2507 27.6419 34.0297 27.7329 33.8 27.7329H23.2405C22.8817 28.7391 21.9284 29.4662 20.8 29.4662C19.3665 29.4662 18.2 28.2997 18.2 26.8662C18.2 25.4328 19.3665 24.2663 20.8 24.2663ZM42.4667 1.7333C41.9891 1.7333 41.6 2.12156 41.6 2.59996C41.6 3.07835 41.9891 3.46661 42.4667 3.46661C42.9442 3.46661 43.3333 3.07835 43.3333 2.59996C43.3333 2.12156 42.9442 1.7333 42.4667 1.7333ZM20.8 27.7329C21.2775 27.7329 21.6667 27.3446 21.6667 26.8662C21.6667 26.3878 21.2775 25.9996 20.8 25.9996C20.3225 25.9996 19.9333 26.3878 19.9333 26.8662C19.9333 27.3446 20.3225 27.7329 20.8 27.7329Z" fill="#00B2FF"/>
<path d="M2.59997 20.7997C3.00037 20.7997 3.37477 20.8976 3.71363 21.0606L6.9333 17.841V12.8404C5.9271 12.4816 5.19997 11.5283 5.19997 10.3999C5.19997 8.96644 6.3665 7.79993 7.79997 7.79993C9.23343 7.79993 10.4 8.96644 10.4 10.3999C10.4 11.5283 9.67283 12.4816 8.66663 12.8404V18.1998C8.66663 18.4303 8.57563 18.6504 8.4127 18.8125L4.9391 22.286C5.10204 22.6249 5.19997 22.9993 5.19997 23.3997C5.19997 24.528 4.47283 25.4814 3.46663 25.8402V26.5075L10.146 33.1868C10.309 33.3488 10.4 33.569 10.4 33.7995V34.8256C11.4062 35.1844 12.1333 36.1377 12.1333 37.2661C12.1333 38.3945 11.4062 39.3478 10.4 39.7066V41.7597C11.4062 42.1185 12.1333 43.0718 12.1333 44.2002C12.1333 45.6336 10.9668 46.8001 9.5333 46.8001C8.09983 46.8001 6.9333 45.6336 6.9333 44.2002C6.9333 43.0718 7.66043 42.1185 8.66663 41.7597V39.7066C7.66043 39.3478 6.9333 38.3945 6.9333 37.2661C6.9333 36.1377 7.66043 35.1844 8.66663 34.8256V34.1583L1.98723 27.479C1.8243 27.3169 1.7333 27.0968 1.7333 26.8663V25.8402C0.7271 25.4814 -3.24249e-05 24.528 -3.24249e-05 23.3997C-3.24249e-05 21.9662 1.1665 20.7997 2.59997 20.7997ZM7.79997 11.2665C8.2775 11.2665 8.66663 10.8783 8.66663 10.3999C8.66663 9.92149 8.2775 9.53323 7.79997 9.53323C7.32243 9.53323 6.9333 9.92149 6.9333 10.3999C6.9333 10.8783 7.32243 11.2665 7.79997 11.2665ZM9.5333 45.066C10.0108 45.066 10.4 44.6777 10.4 44.1993C10.4 43.7209 10.0108 43.3327 9.5333 43.3327C9.05577 43.3327 8.66663 43.7209 8.66663 44.1993C8.66663 44.6777 9.05577 45.066 9.5333 45.066ZM9.5333 38.1328C10.0108 38.1328 10.4 37.7445 10.4 37.2661C10.4 36.7877 10.0108 36.3995 9.5333 36.3995C9.05577 36.3995 8.66663 36.7877 8.66663 37.2661C8.66663 37.7445 9.05577 38.1328 9.5333 38.1328ZM2.59997 24.2663C3.0775 24.2663 3.46663 23.8781 3.46663 23.3997C3.46663 22.9213 3.0775 22.533 2.59997 22.533C2.12243 22.533 1.7333 22.9213 1.7333 23.3997C1.7333 23.8781 2.12243 24.2663 2.59997 24.2663Z" fill="#00B2FF"/>
</symbol><symbol id="icon-mail" viewBox="0 0 19 14">
<path d="M16.6805 0H2.3234C1.0418 0 0 1.0087 0 2.24959V11.7504C0 12.9913 1.0418 14 2.3234 14H16.6766C17.9582 14 19 12.9913 19 11.7504V2.2534C19.0039 1.01251 17.9621 0 16.6805 0ZM17.9425 11.7504C17.9425 12.4241 17.3764 12.9723 16.6805 12.9723H2.3234C1.62756 12.9723 1.06145 12.4241 1.06145 11.7504V2.2534C1.06145 1.57966 1.62756 1.03154 2.3234 1.03154H16.6766C17.3724 1.03154 17.9385 1.57966 17.9385 2.2534V11.7504H17.9425Z" fill="#00B2FF"/>
<path d="M11.9827 6.88195L16.6295 2.84715C16.8457 2.65683 16.8654 2.33328 16.6688 2.12012C16.4723 1.91077 16.1381 1.89174 15.9179 2.08206L9.50992 7.65085L8.25977 6.56982C8.25584 6.56602 8.2519 6.56221 8.2519 6.5584C8.22439 6.53176 8.19687 6.50892 8.16542 6.48608L3.07831 2.07825C2.85816 1.88793 2.524 1.90696 2.32743 2.12012C2.13087 2.33328 2.15052 2.65683 2.37068 2.84715L7.07251 6.91621L2.39033 11.1604C2.17804 11.3545 2.16625 11.678 2.36674 11.8874C2.47289 11.994 2.61442 12.0511 2.75594 12.0511C2.88568 12.0511 3.01541 12.0054 3.11762 11.914L7.87057 7.60898L9.16004 8.72426C9.26225 8.8118 9.38805 8.85367 9.51385 8.85367C9.63965 8.85367 9.76939 8.808 9.86767 8.72045L11.1925 7.57091L15.9179 11.9178C16.0202 12.013 16.1538 12.0587 16.2836 12.0587C16.4251 12.0587 16.5627 12.0054 16.6688 11.8988C16.8693 11.6933 16.8615 11.3659 16.6492 11.1718L11.9827 6.88195Z" fill="#00B2FF"/>
</symbol><symbol id="icon-ok"><path d="M13.851 10.957c1.016 0 1.806-.836 1.787-1.746.019-.91-.752-1.764-1.768-1.764-.978 0-1.787.78-1.787 1.746 0 .965.79 1.764 1.768 1.764z"/><path d="M13.701 0C6.441 0 .535 5.831.535 13c0 7.187 5.906 13 13.166 13 7.279 0 13.166-5.831 13.166-13C26.885 5.83 20.98 0 13.7 0zm.188 4.921c2.37 0 4.326 1.932 4.307 4.29 0 2.377-1.975 4.29-4.382 4.253-2.37-.037-4.27-1.95-4.27-4.271 0-2.359 1.938-4.272 4.345-4.272zm4.834 10.029c0 .037-.019.056-.019.093a1.213 1.213 0 01-.564.873c-.207.13-.433.26-.659.371a8.55 8.55 0 01-1.786.65c-.075.019-.075.019-.02.074l1.035 1.022 1.317 1.3c.62.613.451 1.634-.339 2.006-.131.074-.282.092-.432.13h-.245c-.019 0-.037 0-.037-.02-.301-.036-.546-.185-.771-.39l-2.276-2.246c-.057-.056-.057-.056-.113 0l-2.295 2.265c-.131.13-.263.223-.432.298-.113.055-.245.074-.358.092h-.244c-.038 0-.057-.018-.094-.018-.508-.093-.847-.372-.997-.854-.15-.483-.038-.91.32-1.263l.94-.929 1.392-1.374c.056-.056.056-.056-.019-.074-.019 0-.056-.019-.075-.019a8.182 8.182 0 01-2.351-.984c-.433-.279-.64-.687-.583-1.189.094-.928 1.147-1.43 1.937-.928.15.092.282.167.451.241a5.413 5.413 0 002.746.557c.47-.018.94-.111 1.411-.26.451-.148.846-.353 1.26-.575.677-.39 1.561-.075 1.825.65.037.11.056.204.075.315v.186z"/></symbol><symbol id="icon-phone" viewBox="0 0 18 18">
<path d="M14.2333 11.1503C13.8642 10.7666 13.4191 10.5615 12.9473 10.5615C12.4794 10.5615 12.0304 10.7628 11.6462 11.1465L10.4439 12.3432C10.345 12.2901 10.2461 12.2407 10.151 12.1913C10.014 12.1229 9.88467 12.0583 9.77433 11.9899C8.64819 11.2757 7.62476 10.3449 6.64319 9.14066C6.16762 8.54041 5.84804 8.03514 5.61596 7.52227C5.92793 7.23735 6.21708 6.94102 6.49861 6.6561C6.60514 6.54972 6.71167 6.43955 6.8182 6.33318C7.61715 5.53538 7.61715 4.50205 6.8182 3.70425L5.77955 2.66712C5.66161 2.54935 5.53987 2.42778 5.42573 2.30621C5.19746 2.07067 4.95777 1.82754 4.71047 1.59959C4.34143 1.23489 3.9001 1.04114 3.43595 1.04114C2.97179 1.04114 2.52286 1.23489 2.1424 1.59959C2.1386 1.60339 2.1386 1.60339 2.13479 1.60719L0.841243 2.91026C0.35426 3.39653 0.076528 3.98918 0.0156552 4.6768C-0.0756541 5.78612 0.251537 6.81945 0.502638 7.49568C1.11898 9.15586 2.03968 10.6945 3.41312 12.3432C5.07952 14.3301 7.08452 15.8991 9.37486 17.0046C10.2499 17.4187 11.4179 17.9088 12.7229 17.9924C12.8028 17.9962 12.8865 18 12.9626 18C13.8414 18 14.5795 17.6847 15.1578 17.0578C15.1616 17.0502 15.1692 17.0464 15.173 17.0388C15.3708 16.7995 15.5991 16.5829 15.8388 16.3512C16.0024 16.1954 16.1698 16.0321 16.3334 15.8611C16.71 15.4698 16.9079 15.014 16.9079 14.5467C16.9079 14.0756 16.7062 13.6235 16.322 13.2436L14.2333 11.1503ZM15.5953 15.1507C15.5915 15.1507 15.5915 15.1545 15.5953 15.1507C15.4469 15.3103 15.2947 15.4546 15.1311 15.6142C14.8838 15.8497 14.6327 16.0967 14.3969 16.374C14.0126 16.7843 13.5599 16.978 12.9664 16.978C12.9093 16.978 12.8484 16.978 12.7913 16.9742C11.6614 16.9021 10.6113 16.4614 9.82379 16.0853C7.67042 15.0443 5.77955 13.5665 4.20827 11.6936C2.91092 10.1322 2.04348 8.68857 1.46899 7.13857C1.11517 6.19262 0.985816 5.4556 1.04288 4.76038C1.08093 4.3159 1.25214 3.94739 1.56791 3.63207L2.86527 2.33661C3.05169 2.16185 3.24953 2.06687 3.44356 2.06687C3.68324 2.06687 3.87728 2.21124 3.99902 2.33281C4.00283 2.33661 4.00663 2.3404 4.01044 2.3442C4.24251 2.56075 4.46318 2.78489 4.69526 3.02423C4.8132 3.1458 4.93494 3.26737 5.05669 3.39273L6.09533 4.42987C6.49861 4.83256 6.49861 5.20487 6.09533 5.60757C5.985 5.71774 5.87847 5.82791 5.76814 5.93428C5.44856 6.261 5.14419 6.56492 4.8132 6.86124C4.80559 6.86884 4.79798 6.87264 4.79417 6.88024C4.46698 7.20695 4.52786 7.52607 4.59634 7.74262C4.60014 7.75401 4.60395 7.76541 4.60775 7.77681C4.87787 8.43024 5.25833 9.04568 5.83662 9.7789L5.84043 9.78269C6.89048 11.0744 7.99761 12.0811 9.21887 12.8523C9.37486 12.9511 9.53465 13.0309 9.68683 13.1068C9.82379 13.1752 9.95315 13.2398 10.0635 13.3082C10.0787 13.3158 10.0939 13.3272 10.1091 13.3348C10.2385 13.3994 10.3602 13.4298 10.4858 13.4298C10.8016 13.4298 10.9994 13.2322 11.0641 13.1676L12.3652 11.8684C12.4946 11.7392 12.7 11.5834 12.9397 11.5834C13.1756 11.5834 13.3696 11.7316 13.4876 11.8608C13.4914 11.8646 13.4914 11.8646 13.4952 11.8684L15.5915 13.9616C15.9834 14.3491 15.9834 14.748 15.5953 15.1507Z" fill="#00B2FF"/>
<path d="M9.72843 4.28169C10.7252 4.44885 11.6307 4.91992 12.3536 5.64174C13.0764 6.36355 13.5444 7.26772 13.7156 8.26307C13.7575 8.5138 13.9743 8.68856 14.2216 8.68856C14.252 8.68856 14.2787 8.68476 14.3091 8.68096C14.5907 8.63537 14.7771 8.36944 14.7314 8.08831C14.526 6.88402 13.9553 5.7861 13.0841 4.91613C12.2128 4.04615 11.1133 3.4763 9.90725 3.27115C9.62571 3.22556 9.3632 3.41171 9.31374 3.68904C9.26428 3.96637 9.4469 4.2361 9.72843 4.28169Z" fill="#00B2FF"/>
<path d="M17.9921 7.94018C17.6535 5.95709 16.7176 4.15255 15.2795 2.71652C13.8414 1.28049 12.0342 0.345932 10.0482 0.00781895C9.77051 -0.0415684 9.50799 0.148383 9.45853 0.425712C9.41288 0.70684 9.5993 0.968972 9.88084 1.01836C11.6538 1.31848 13.2707 2.15807 14.5566 3.43834C15.8426 4.72241 16.6796 6.33699 16.9801 8.10734C17.022 8.35808 17.2388 8.53283 17.4861 8.53283C17.5166 8.53283 17.5432 8.52903 17.5736 8.52523C17.8514 8.48344 18.0416 8.21751 17.9921 7.94018Z" fill="#00B2FF"/>
</symbol><symbol id="icon-tag"><path d="M11.07 8.585a.689.689 0 00-.483-.2.689.689 0 00-.483.2.69.69 0 00-.2.483.685.685 0 001.167.483.69.69 0 00.2-.483.689.689 0 00-.2-.483z"/><path d="M34.8 2.859l-.845-.847.845-.845A.684.684 0 0033.833.2l-.844.845-.833-.834a.683.683 0 00-.484-.2L20.102.003H20.1c-.913 0-1.772.356-2.418 1.002L11.908 6.78a.684.684 0 00.967.967l5.774-5.774A2.04 2.04 0 0120.1 1.37h.002l11.286.007.634.634-2.537 2.537a2.805 2.805 0 00-3.419.422 2.783 2.783 0 00-.82 1.98c0 .748.291 1.452.82 1.98a2.792 2.792 0 001.98.82c.717 0 1.434-.273 1.98-.82a2.806 2.806 0 00.425-3.415l2.537-2.537.645.646-.007 11.273a2.04 2.04 0 01-.601 1.451L16.344 33.033a2.04 2.04 0 01-1.452.601 2.04 2.04 0 01-1.452-.601L1.97 21.559a2.04 2.04 0 01-.602-1.452c0-.548.214-1.064.602-1.452l7.368-7.37a.684.684 0 00-.966-.966L1 17.689a3.399 3.399 0 00-1 2.417c0 .914.356 1.773 1.002 2.42L12.473 34a3.41 3.41 0 002.419 1 3.41 3.41 0 002.419-1l16.68-16.684a3.4 3.4 0 001.003-2.417L35 3.342a.683.683 0 00-.2-.483zm-5.74 5.106c-.271.27-.631.42-1.014.42s-.742-.15-1.013-.42a1.435 1.435 0 011.013-2.447c.139 0 .277.02.41.06l-.789.789a.684.684 0 00.967.967l.787-.787a1.434 1.434 0 01-.361 1.418z"/><path d="M29.2 13.764l-7.966-7.967a2.71 2.71 0 00-3.828 0L4.8 18.406a2.69 2.69 0 00-.793 1.914c0 .723.282 1.403.793 1.914l7.967 7.968c.511.51 1.19.793 1.914.793.723 0 1.402-.282 1.913-.793L29.2 17.592a2.69 2.69 0 00.793-1.913 2.69 2.69 0 00-.793-1.915zm-.966 2.862L15.627 29.235a1.33 1.33 0 01-.947.392 1.33 1.33 0 01-.947-.392l-7.967-7.968a1.33 1.33 0 01-.392-.947c0-.358.139-.695.392-.948L18.373 6.764c.261-.262.604-.392.947-.392.343 0 .686.13.947.392l7.967 7.967c.253.253.392.59.392.948 0 .357-.14.694-.392.947z"/><path d="M22.29 13.677a.684.684 0 00-.966-.967l-.394.394c-1.051-.65-2.4-.563-3.252.29a2.48 2.48 0 00-.716 1.9 2.876 2.876 0 00.853 1.892c.55.55.611 1.384.137 1.859-.475.474-1.309.413-1.859-.137s-.61-1.384-.136-1.859a.684.684 0 00-.967-.967c-.853.853-.94 2.202-.29 3.253l-.468.467a.684.684 0 00.968.967l.467-.467c.46.283.975.427 1.482.427.652 0 1.29-.238 1.77-.717 1.007-1.008.946-2.709-.137-3.792a1.512 1.512 0 01-.454-.991 1.13 1.13 0 01.317-.868c.474-.475 1.308-.413 1.858.137s.611 1.384.137 1.858a.684.684 0 00.966.967c.853-.852.94-2.201.29-3.252l.394-.394zm-6.918 11.335L11.86 21.5a.684.684 0 00-.967.967l3.511 3.512a.682.682 0 00.967 0 .684.684 0 000-.967zm-5.384-5.385a.688.688 0 00-.483-.2.69.69 0 00-.483.2.69.69 0 00-.2.484.684.684 0 00.683.683.688.688 0 00.684-.683.689.689 0 00-.2-.484z"/></symbol><symbol id="icon-vk"><path d="M19.475 15.127c-1.109-1.024-1.188-1.024-.238-2.206 1.188-1.497 2.773-3.388 1.347-3.388H17.97c-.475 0-.554.316-.713.71-.633 1.496-1.9 3.466-2.376 3.15-.475-.314-.237-1.496-.237-3.387a.61.61 0 00-.159-.63c-.158-.158-.396-.315-.633-.315-.396-.079-.792-.158-1.188-.158-1.505 0-2.535.63-1.98.71 1.03.157.95 2.363.712 3.308-.396 1.655-1.98-1.26-2.693-2.757-.079-.394-.396-.63-.792-.63H5.852c-.317 0-.554.078-.554.315 0 .393 1.98 4.254 3.801 6.224 1.822 1.89 3.644 1.733 4.911 1.733a.607.607 0 00.396-.158.6.6 0 00.158-.394c0-1.26.476-1.89 1.347-1.024.95.945 1.188 1.576 2.376 1.576h2.138c.555 0 .713-.158.713-.394.08-.552-.871-1.576-1.663-2.285zM13.852.001c7.366.157 13.226 6.066 13.147 13.235-.079 7.17-6.178 12.842-13.543 12.763C6.01 25.92.07 20.17.07 13 .15 5.753 6.327-.077 13.852.002z"/></symbol><symbol id="icon-wath"><path d="M3.188 11.662L1.702 10.19a2.038 2.038 0 010-2.9c.807-.8 2.122-.8 2.929 0l1.587 1.572a14.58 14.58 0 015.52-2.311V4.51h-1.38a.687.687 0 01-.691-.683V2.051C9.667.92 10.596 0 11.738 0h5.524c1.142 0 2.071.92 2.071 2.05v1.778a.687.687 0 01-.69.684h-1.381V6.55a14.578 14.578 0 015.52 2.31l1.587-1.57c.807-.8 2.121-.8 2.93 0a2.04 2.04 0 010 2.9l-1.487 1.471A14.252 14.252 0 0129 20.644C29 28.56 22.495 35 14.5 35S0 28.56 0 20.645c0-3.277 1.128-6.442 3.188-8.983zm.467-3.405a.696.696 0 00-.977 0 .68.68 0 000 .967l1.427 1.412c.322-.327.659-.638 1.01-.934l-1.46-1.445zm14.297-6.206a.688.688 0 00-.69-.684h-5.524c-.38 0-.69.307-.69.684v1.094h6.904V2.05zM13.12 4.51v1.843a15.006 15.006 0 012.762 0V4.512H13.12zm13.203 3.746a.696.696 0 00-.977 0l-1.46 1.445c.351.296.688.607 1.01.934l1.427-1.412a.68.68 0 000-.967zM14.5 33.633c7.234 0 13.119-5.827 13.119-12.989 0-3.159-1.158-6.202-3.262-8.57A13.177 13.177 0 0014.5 7.656a13.18 13.18 0 00-7.936 2.645 13.19 13.19 0 00-1.921 1.771 12.898 12.898 0 00-3.262 8.572c0 7.161 5.885 12.988 13.119 12.988z"/><path d="M14.5 22.695a2.063 2.063 0 01-2.071-2.05c0-.892.577-1.651 1.38-1.934V13.81c0-.378.31-.684.691-.684.382 0 .69.306.69.684v4.902a2.056 2.056 0 011.382 1.934c0 1.13-.93 2.05-2.072 2.05zm0-2.734c-.38 0-.69.306-.69.684 0 .377.31.683.69.683.38 0 .69-.306.69-.683a.688.688 0 00-.69-.684z"/><path d="M7.145 13.433a.54.54 0 01.033-.037l.04-.037a10.417 10.417 0 014.353-2.55.682.682 0 11.391 1.311 9.028 9.028 0 00-3.298 1.78l.466.46c.27.268.27.7 0 .968a.692.692 0 01-.977 0l-.467-.462A8.758 8.758 0 005.55 19.96h.664c.382 0 .69.306.69.684a.686.686 0 01-.69.683H5.55a8.757 8.757 0 002.136 5.096l.467-.463a.696.696 0 01.977 0c.27.267.27.7 0 .967l-.467.462a8.941 8.941 0 005.147 2.115v-.657c0-.378.309-.684.69-.684.381 0 .69.306.69.684v.657a8.939 8.939 0 005.147-2.115l-.467-.462a.679.679 0 010-.967.696.696 0 01.977 0l.467.463a8.758 8.758 0 002.136-5.096h-.664a.687.687 0 01-.69-.683c0-.378.308-.684.69-.684h.664a8.758 8.758 0 00-2.136-5.095l-.467.462a.692.692 0 01-.977 0 .68.68 0 010-.967l.466-.461a9.024 9.024 0 00-3.298-1.78.682.682 0 01-.466-.85.692.692 0 01.857-.462 10.414 10.414 0 014.351 2.55.672.672 0 01.042.037l.033.037a10.132 10.132 0 013.002 7.213c0 2.718-1.066 5.277-3.002 7.211a.555.555 0 01-.033.037.38.38 0 01-.037.033 10.34 10.34 0 01-7.285 2.972c-2.746 0-5.33-1.055-7.284-2.971l-.038-.034c-.012-.011-.022-.024-.033-.036a10.132 10.132 0 01-3.002-7.212 10.13 10.13 0 013.002-7.212z"/><path d="M14.5 11.758a.687.687 0 01-.69-.684c0-.377.309-.683.69-.683.381 0 .69.306.69.683a.688.688 0 01-.69.684z"/></symbol></svg>